<svg
  width="30"
  height="30"
  viewBox="0 0 48 48"
  fill="none"
  xmlns="http://www.w3.org/2000/svg"
>
                <rect width="48" height="48" rx="24" fill="#FEE2CD" />
                <path
    d="M11.111 20.0515L12.4444 19.2693V22.2204H35.5555V19.296L36.871 20.0515C37.0742 20.1578 37.3105 20.1815 37.5307 20.1176C37.7509 20.0537 37.9379 19.9072 38.0526 19.7087C38.1674 19.5102 38.201 19.2751 38.1464 19.0524C38.0919 18.8297 37.9534 18.6367 37.7599 18.5138L23.9999 10.5938L10.2221 18.5138C10.1159 18.5693 10.022 18.6458 9.94612 18.7386C9.87022 18.8314 9.81387 18.9386 9.78047 19.0537C9.74707 19.1689 9.7373 19.2896 9.75176 19.4086C9.76621 19.5276 9.80459 19.6424 9.86459 19.7462C9.92458 19.85 10.005 19.9406 10.1009 20.0125C10.1968 20.0844 10.3062 20.1362 10.4227 20.1647C10.5391 20.1933 10.6601 20.1979 10.7784 20.1785C10.8967 20.159 11.0099 20.1158 11.111 20.0515ZM23.8666 14.3182C23.9747 14.2558 24.0973 14.2229 24.2221 14.2229C24.347 14.2229 24.4696 14.2558 24.5777 14.3182L30.551 17.776H27.6888L24.2221 15.7849L20.7555 17.776H17.9021L23.8666 14.3182Z"
    fill="#C85604"
  />
                <path
    d="M37.2001 32.0008H36.4445V31.2452C36.4445 30.9741 36.3368 30.7141 36.1451 30.5224C35.9534 30.3307 35.6934 30.223 35.4223 30.223H32.8889V23.6719H29.3334V30.223H25.7778V23.6719H22.2223V30.223H18.6667V23.6719H15.1112V30.223H12.5778C12.3067 30.223 12.0467 30.3307 11.855 30.5224C11.6633 30.7141 11.5556 30.9741 11.5556 31.2452V32.0008H10.8001C10.5289 32.0008 10.2689 32.1085 10.0772 32.3002C9.88553 32.4919 9.77783 32.7519 9.77783 33.023V35.5563H38.2223V33.023C38.2223 32.7519 38.1146 32.4919 37.9229 32.3002C37.7312 32.1085 37.4712 32.0008 37.2001 32.0008Z"
    fill="#C85604"
  />
              </svg>
